<svg version="1.2" xmlns="http://www.w3.org/2000/svg" viewBox="0 0 2430 749" width="2430" height="749">
	<style>
		tspan { white-space:pre } 
		.s0 { fill: #000000 } 
		.s1 { fill: #871f80 } 
		.t2 { font-size: 55px;fill: #871f80;font-family: "mittleschriftcaps" } 
		.s3 { fill: #ffffff } 
		.t4 { font-size: 55px;fill: #ffffff;font-family: "mittleschriftcaps" } 
	</style>
	<g id="Capa 1">
		<path id="&lt;Path&gt;" class="s0" d="m2429.8 1402h-2429.8v-652.8h2429.8z"/>
		<g id="&lt;Group&gt;">
			<path id="&lt;Compound Path&gt;" fill-rule="evenodd" class="s1" d="m469.82 411.67q-15.69-17.59-22.98-39.15l-0.63-1.59q-5.71-17.11-5.7-35.5 0-19.65 6.65-38.67 6.66-19.02 19.97-34.55 17.43-18.7 35.35-28.69 17.9-9.98 45.17-11.57h0.94q26.63-1.58 51.99 9.51 15.85 6.98 30.59 20.45 14.74 13.47 21.4 26.78 14.89 26 14.89 56.43 0 17.75-5.38 34.7-5.4 16.97-15.86 31.54-7.92 11.1-17.27 19.5-9.36 8.4-22.98 15.69-24.41 12.36-52.62 12.36-24.09 0-45.96-9.51-21.87-10.14-37.57-27.73zm138.05-28.06q8.56-9.82 12.37-18.7 6.33-14.58 6.33-29.79 0-20.92-11.41-39.15-11.41-18.23-31.38-27.1-14.58-6.35-30.11-6.35-13.95 0-26.79 5.08-12.84 5.07-22.98 14.89l-5.39 5.71q-8.56 10.46-12.83 22.51-4.29 12.05-4.29 24.72 0.01 15.85 6.66 30.59 6.66 14.74 19.34 24.88 20.6 17.12 46.91 17.12 17.44 0 32.65-7.61 12.36-6.97 20.92-16.8z"/>
			<path id="&lt;Path&gt;" class="s1" d="m78.19 433.91q-25.68-15.21-40.73-41.36-15.06-26.15-15.06-57.22 0-30.74 15.06-56.9 15.05-26.15 40.73-41.52 25.68-15.38 56.1-15.38 24.41 0.01 45.81 9.83 21.4 9.83 36.93 26.95 1.26 1.26 1.27 3.17-0.01 2.21-1.59 3.48l-22.82 19.65q-1.59 1.59-3.49 1.59-1.9 0-3.17-1.59-10.14-11.09-23.93-17.27-13.79-6.18-29.01-6.18-19.65 0-36.29 9.98-16.64 9.99-26.47 27.1-9.82 17.12-9.82 37.09 0 19.97 9.82 37.09 9.83 17.12 26.47 27.1 16.64 9.99 36.29 9.99 14.58 0 27.58-5.55 13-5.55 23.14-15.69 2.86-2.54 6.03-2.54 2.85 0.01 4.44 1.59l6.02 5.07 12.67 11.41q3.17 2.22 3.17 6.02 0 2.23-1.58 3.81-15.53 16.8-36.61 26.15-21.08 9.35-44.86 9.35-30.42 0-56.1-15.22z"/>
			<path id="&lt;Path&gt;" class="s1" d="m264.74 444.69q-1.75-1.58-1.75-4.12v-110.63q0-2.53 1.75-4.28 1.74-1.74 4.27-1.74h65.62q12.68 0 21.4-8.56 8.71-8.55 8.71-20.6 0-12.37-8.71-20.92-8.72-8.56-21.4-8.56h-26.63q-3.48 0-5.86 2.38-2.38 2.38-2.38 5.54v7.93q0 3.17-2.22 5.55-2.22 2.38-5.7 2.38h-20.93q-3.16 0-5.54-2.38-2.38-2.38-2.38-5.55v-51.04q0-2.53 1.75-4.27 1.74-1.75 4.27-1.75h65.62q19.65 0 36.14 9.51 16.48 9.51 26.15 25.68 9.66 16.16 9.67 35.5 0 16.48-7.45 31.06-7.45 14.59-20.45 24.41-1.9 1.27-1.9 3.17 0 1.9 0.32 3.17l36.76 82.1q1.27 2.22 1.27 4.12 0 3.49-4.43 3.49h-26q-3.49 0-5.23-0.64-1.75-0.63-3.01-3.17l-32.97-74.17q-0.94-1.9-2.53-2.54-1.58-0.63-6.34-0.63h-26.94q-3.81 0-5.87 1.11-2.06 1.11-2.06 4.59v69.74q0 2.54-1.74 4.12-1.75 1.59-4.28 1.59h-24.73q-2.53 0-4.27-1.59z"/>
			<path id="&lt;Path&gt;" class="s1" d="m827.38 445.64q0 0-2.54-3.17-12.35-19.33-40.41-62.76-28.05-43.42-42.32-66.25-1.9-2.22-2.53-2.22-0.64 0-0.8 1.27-0.16 1.27-0.16 1.9l0.64 87.91q0 2.22-1.59 3.96-1.58 1.75-4.12 1.74h-30.74q-2.55 0-4.28-1.58-1.75-1.58-1.75-4.12v-171.59q0-2.54 1.75-4.28 1.73-1.74 4.28-1.75h31.06q2.22 0 3.8 1.91l76.72 127.74q2.84 5.39 4.75 5.39 1.58 0 1.58-5.39l-0.31-123.62q0-2.54 1.74-4.28 1.74-1.74 3.97-1.75h33.6q2.53 0.01 4.27 1.75 1.74 1.74 1.75 4.28v209.21q-0.01 2.53-1.75 4.12-1.74 1.58-4.27 1.58h-29.17-0.32-0.31z"/>
			<path id="&lt;Path&gt;" class="s1" d="m911.34 261.63q-1.74-1.74-1.74-4.27v-27.27q0-2.53 1.74-4.12 1.74-1.58 3.97-1.58h147.07q2.54 0 4.29 1.74 1.73 1.75 1.74 3.96v27.27q-0.01 2.21-1.74 4.11-1.75 1.91-4.29 1.91h-147.07q-2.23 0-3.97-1.75z"/>
			<path id="&lt;Path&gt;" class="s1" d="m911.34 444.53q-1.74-1.74-1.74-3.96v-146.44q0-2.54 1.74-4.13 1.74-1.58 3.97-1.58h26.94q2.53 0 4.12 1.58 1.58 1.59 1.58 4.13v22.82q0 6.02 8.25 6.02h79.88q2.21 0 3.8 1.42 1.58 1.43 1.58 3.65v27.26q0 2.22-1.58 3.65-1.59 1.42-3.8 1.43h-80.84q-7.29 0-7.29 6.65v34.55q0.01 2.22 1.9 4.12 1.9 1.9 4.13 1.9h109.04q2.53 0.01 4.12 1.59 1.58 1.59 1.58 4.12v27.26q0 2.22-1.58 3.96-1.59 1.75-4.12 1.75h-147.71q-2.23 0-3.97-1.75z"/>
			<path id="&lt;Path&gt;" class="s1" d="m1281.83 227.88q0 2.53-1.27 4.11l-62.45 100.17 66.25 105.87q1.27 2.22 1.27 4.76 0 3.48-3.17 3.49l-32.65-0.32h-1.9q-5.39 0-6.97-2.53l-45.97-74.18-46.28 74.18q-0.95 1.58-3.01 2.05-2.06 0.48-6.5 0.48l-31.7 0.32q-3.16-0.01-3.17-3.49 0.01-2.54 1.27-4.76l131.23-210.47q2.54-3.49 9.2-3.49h32.01q3.81 0 3.81 3.81z"/>
			<path id="&lt;Path&gt;" class="s1" d="m1152.81 227.56l21.56 34.55q1.9 3.48 1.9 5.71 0 3.16-2.22 6.33-1.58 2.54-6.81 10.94-5.23 8.4-8.25 11.89-3 3.48-5.23 3.48-1.9 0-3.16-2.21l-41.21-66.25q-1.27-1.59-1.27-4.13 0-3.8 3.8-3.8h32.02q6.66 0 8.87 3.49z"/>
			<text id="THE NEW DIGITAL WORLD
" transform="translate(164.3,562.7)">
				<tspan x="0" y="0" class="t2" dx="0 18 18 18 18 18 18 18 18 18 18 18 18 18 18 18 18 18 18 18 18 18" >THE NEW DIGITAL WORLD
</tspan>
			</text>
		</g>
		<g id="&lt;Group&gt;">
			<path id="&lt;Compound Path&gt;" fill-rule="evenodd" class="s3" d="m469.82 1064.47q-15.69-17.59-22.98-39.15l-0.63-1.59q-5.71-17.11-5.7-35.5 0-19.65 6.65-38.67 6.66-19.02 19.97-34.55 17.43-18.7 35.35-28.69 17.9-9.98 45.17-11.57h0.94q26.63-1.58 51.99 9.51 15.85 6.98 30.59 20.45 14.74 13.47 21.4 26.78 14.89 26 14.89 56.43 0 17.75-5.38 34.7-5.4 16.97-15.86 31.54-7.92 11.1-17.27 19.5-9.36 8.4-22.98 15.69-24.41 12.36-52.62 12.36-24.09 0-45.96-9.51-21.87-10.14-37.57-27.73zm138.05-28.06q8.56-9.82 12.37-18.7 6.33-14.58 6.33-29.79 0-20.92-11.41-39.15-11.41-18.23-31.38-27.1-14.58-6.35-30.11-6.35-13.95 0-26.79 5.08-12.84 5.07-22.98 14.89l-5.39 5.71q-8.56 10.46-12.83 22.51-4.29 12.05-4.29 24.72 0.01 15.85 6.66 30.59 6.66 14.74 19.34 24.88 20.6 17.12 46.91 17.12 17.44 0 32.65-7.61 12.36-6.97 20.92-16.8z"/>
			<path id="&lt;Path&gt;" class="s3" d="m78.19 1086.71q-25.68-15.21-40.73-41.36-15.06-26.15-15.06-57.22 0-30.74 15.06-56.9 15.05-26.15 40.73-41.52 25.68-15.38 56.1-15.38 24.41 0.01 45.81 9.83 21.4 9.83 36.93 26.95 1.26 1.26 1.27 3.17-0.01 2.21-1.59 3.48l-22.82 19.65q-1.59 1.59-3.49 1.59-1.9 0-3.17-1.59-10.14-11.09-23.93-17.27-13.79-6.18-29.01-6.18-19.65 0-36.29 9.98-16.64 9.99-26.47 27.1-9.82 17.12-9.82 37.09 0 19.97 9.82 37.09 9.83 17.12 26.47 27.1 16.64 9.99 36.29 9.99 14.58 0 27.58-5.55 13-5.55 23.14-15.69 2.86-2.54 6.03-2.54 2.85 0.01 4.44 1.59l6.02 5.07 12.67 11.41q3.17 2.22 3.17 6.02 0 2.23-1.58 3.81-15.53 16.8-36.61 26.15-21.08 9.35-44.86 9.35-30.42 0-56.1-15.22z"/>
			<path id="&lt;Path&gt;" class="s3" d="m264.74 1097.49q-1.75-1.58-1.75-4.12v-110.63q0-2.53 1.75-4.28 1.74-1.74 4.27-1.74h65.62q12.68 0 21.4-8.56 8.71-8.55 8.71-20.6 0-12.37-8.71-20.92-8.72-8.56-21.4-8.56h-26.63q-3.48 0-5.86 2.38-2.38 2.38-2.38 5.54v7.93q0 3.17-2.22 5.55-2.22 2.38-5.7 2.38h-20.93q-3.16 0-5.54-2.38-2.38-2.38-2.38-5.55v-51.04q0-2.53 1.75-4.27 1.74-1.75 4.27-1.75h65.62q19.65 0 36.14 9.51 16.48 9.51 26.15 25.68 9.66 16.16 9.67 35.5 0 16.48-7.45 31.06-7.45 14.59-20.45 24.41-1.9 1.27-1.9 3.17 0 1.9 0.32 3.17l36.76 82.1q1.27 2.22 1.27 4.12 0 3.49-4.43 3.49h-26q-3.49 0-5.23-0.64-1.75-0.63-3.01-3.17l-32.97-74.17q-0.94-1.9-2.53-2.54-1.58-0.63-6.34-0.63h-26.94q-3.81 0-5.87 1.11-2.06 1.11-2.06 4.59v69.74q0 2.54-1.74 4.12-1.75 1.59-4.28 1.59h-24.73q-2.53 0-4.27-1.59z"/>
			<path id="&lt;Path&gt;" class="s3" d="m827.38 1098.44q0 0-2.54-3.17-12.35-19.33-40.41-62.76-28.05-43.42-42.32-66.25-1.9-2.22-2.53-2.22-0.64 0-0.8 1.27-0.16 1.27-0.16 1.9l0.64 87.91q0 2.22-1.59 3.96-1.58 1.75-4.12 1.74h-30.74q-2.55 0-4.28-1.58-1.75-1.58-1.75-4.12v-171.59q0-2.54 1.75-4.28 1.73-1.74 4.28-1.75h31.06q2.22 0 3.8 1.91l76.72 127.74q2.84 5.39 4.75 5.39 1.58 0 1.58-5.39l-0.31-123.62q0-2.54 1.74-4.28 1.74-1.74 3.97-1.75h33.6q2.53 0.01 4.27 1.75 1.74 1.74 1.75 4.28v209.21q-0.01 2.53-1.75 4.12-1.74 1.58-4.27 1.58h-29.17-0.32-0.31z"/>
			<path id="&lt;Path&gt;" class="s3" d="m911.34 914.43q-1.74-1.74-1.74-4.27v-27.27q0-2.53 1.74-4.12 1.74-1.58 3.97-1.58h147.07q2.54 0 4.29 1.74 1.73 1.75 1.74 3.96v27.27q-0.01 2.21-1.74 4.11-1.75 1.91-4.29 1.91h-147.07q-2.23 0-3.97-1.75z"/>
			<path id="&lt;Path&gt;" class="s3" d="m911.34 1097.33q-1.74-1.74-1.74-3.96v-146.44q0-2.54 1.74-4.13 1.74-1.58 3.97-1.58h26.94q2.53 0 4.12 1.58 1.58 1.59 1.58 4.13v22.82q0 6.02 8.25 6.02h79.88q2.21 0 3.8 1.42 1.58 1.43 1.58 3.65v27.26q0 2.22-1.58 3.65-1.59 1.42-3.8 1.43h-80.84q-7.29 0-7.29 6.65v34.55q0.01 2.22 1.9 4.12 1.9 1.9 4.13 1.9h109.04q2.53 0.01 4.12 1.59 1.58 1.59 1.58 4.12v27.26q0 2.22-1.58 3.96-1.59 1.75-4.12 1.75h-147.71q-2.23 0-3.97-1.75z"/>
			<path id="&lt;Path&gt;" class="s3" d="m1281.83 880.68q0 2.53-1.27 4.11l-62.45 100.17 66.25 105.87q1.27 2.22 1.27 4.76 0 3.48-3.17 3.49l-32.65-0.32h-1.9q-5.39 0-6.97-2.53l-45.97-74.18-46.28 74.18q-0.95 1.58-3.01 2.05-2.06 0.48-6.5 0.48l-31.7 0.32q-3.16-0.01-3.17-3.49 0.01-2.54 1.27-4.76l131.23-210.47q2.54-3.49 9.2-3.49h32.01q3.81 0 3.81 3.81z"/>
			<path id="&lt;Path&gt;" class="s3" d="m1152.81 880.36l21.56 34.55q1.9 3.48 1.9 5.71 0 3.16-2.22 6.33-1.58 2.54-6.81 10.94-5.23 8.4-8.25 11.89-3 3.48-5.23 3.48-1.9 0-3.16-2.21l-41.21-66.25q-1.27-1.59-1.27-4.13 0-3.8 3.8-3.8h32.02q6.66 0 8.87 3.49z"/>
			<text id="THE NEW DIGITAL WORLD
" transform="translate(164.3,1215.5)">
				<tspan x="0" y="0" class="t4" dx="0 18 18 18 18 18 18 18 18 18 18 18 18 18 18 18 18 18 18 18 18 18" >THE NEW DIGITAL WORLD
</tspan>
			</text>
		</g>
	</g>
</svg>