<?xml version="1.0" standalone="no"?>
<!DOCTYPE svg PUBLIC "-//W3C//DTD SVG 20010904//EN"
 "http://www.w3.org/TR/2001/REC-SVG-20010904/DTD/svg10.dtd">
<svg version="1.0" xmlns="http://www.w3.org/2000/svg"
 width="397.000000pt" height="778.000000pt" viewBox="0 0 397.000000 778.000000"
 preserveAspectRatio="xMidYMid meet">

<g transform="translate(0.000000,778.000000) scale(0.100000,-0.100000)"
fill="#000000" stroke="none">
<path d="M2140 7613 c-26 -31 -60 -90 -60 -104 0 -8 -13 -29 -30 -47 -33 -36
-39 -75 -16 -107 7 -11 15 -50 18 -87 5 -79 21 -107 38 -64 16 43 25 226 12
226 -7 0 -12 14 -12 31 0 17 4 28 10 24 6 -3 10 -15 10 -26 0 -10 7 -19 15
-19 11 0 15 12 15 46 0 36 6 54 31 85 17 21 28 43 24 49 -10 16 -39 12 -55 -7z
m-60 -212 c0 -11 -4 -23 -10 -26 -6 -4 -10 5 -10 19 0 14 5 26 10 26 6 0 10
-9 10 -19z"/>
<path d="M1852 7532 c-45 -44 -82 -87 -82 -95 0 -9 -6 -20 -12 -24 -17 -11
-58 -70 -58 -83 0 -6 -7 -18 -15 -26 -8 -9 -15 -26 -15 -38 0 -13 -7 -29 -15
-36 -8 -7 -15 -29 -15 -50 0 -21 -7 -43 -15 -50 -9 -7 -15 -29 -15 -55 0 -23
-7 -62 -15 -85 -8 -23 -15 -59 -15 -79 0 -20 -7 -47 -16 -59 -8 -12 -12 -27
-8 -33 3 -6 6 -50 5 -98 -1 -57 3 -95 13 -113 8 -14 17 -44 21 -67 4 -22 13
-45 21 -52 8 -6 14 -18 14 -25 0 -19 36 -18 44 2 10 27 7 61 -8 73 -7 6 -16
39 -18 76 -3 36 -11 72 -18 80 -18 21 -14 234 4 264 5 7 11 46 14 85 3 39 11
76 19 84 7 7 13 31 13 53 0 26 5 42 15 45 9 4 15 19 15 40 0 19 4 34 9 34 5 0
14 14 20 30 5 17 15 30 20 30 6 0 11 8 11 18 0 9 9 23 20 30 11 7 20 18 20 25
0 6 9 23 20 37 l20 25 0 -28 c0 -15 -7 -30 -15 -33 -8 -4 -15 -18 -15 -34 0
-15 -9 -38 -19 -52 -12 -15 -18 -33 -14 -46 3 -11 -2 -35 -10 -52 -14 -28 -18
-65 -31 -305 -1 -22 -6 -48 -10 -58 -5 -10 -4 -23 2 -30 7 -8 7 -18 2 -27 -6
-9 -4 -20 3 -29 7 -8 12 -52 13 -111 1 -98 7 -125 25 -114 6 4 9 66 8 157 -1
86 4 185 11 229 9 55 10 85 2 106 -12 36 -6 104 14 149 8 17 14 42 14 56 0 14
6 38 14 54 25 51 45 98 51 121 3 12 10 22 15 22 4 0 11 12 14 26 4 14 18 36
32 49 29 27 28 59 -1 63 -14 2 -46 -22 -103 -76z"/>
<path d="M2216 7531 c-4 -6 -3 -18 2 -27 8 -14 10 -14 15 -2 7 19 -8 44 -17
29z"/>
<path d="M1990 7495 c0 -14 5 -25 10 -25 6 0 10 11 10 25 0 14 -4 25 -10 25
-5 0 -10 -11 -10 -25z"/>
<path d="M2246 7415 c-10 -28 -7 -60 9 -81 13 -18 14 -16 15 26 0 52 -13 82
-24 55z"/>
<path d="M2150 7293 c0 -10 5 -25 10 -33 7 -11 10 -7 10 18 0 17 -4 32 -10 32
-5 0 -10 -8 -10 -17z"/>
<path d="M2274 7263 c-3 -10 -10 -28 -15 -41 -10 -26 -12 -122 -3 -146 3 -9
14 -16 24 -16 15 0 17 13 19 104 1 64 -2 107 -9 111 -5 3 -13 -2 -16 -12z"/>
<path d="M2205 7230 c-3 -5 -14 -10 -25 -10 -21 0 -30 -19 -30 -61 0 -42 16
-36 32 14 12 34 20 43 41 45 15 2 25 8 22 13 -8 12 -32 12 -40 -1z"/>
<path d="M1895 7200 c-8 -13 37 -31 49 -20 4 5 5 13 2 19 -9 14 -43 14 -51 1z"/>
<path d="M1865 7169 c-4 -6 -5 -13 -2 -16 7 -7 27 6 27 18 0 12 -17 12 -25 -2z"/>
<path d="M2091 7100 c-4 -117 0 -215 9 -224 6 -6 17 -3 28 7 10 9 28 17 40 17
12 0 32 11 44 25 12 14 27 25 34 25 6 0 17 7 24 15 7 8 26 15 43 15 l30 0 -41
-42 c-23 -22 -44 -54 -47 -69 -4 -16 -11 -31 -16 -34 -5 -4 -9 -30 -9 -60 0
-79 34 -104 98 -72 15 8 42 21 60 30 19 9 42 17 52 17 9 0 23 7 30 16 18 20
60 14 74 -11 6 -11 17 -24 24 -28 6 -4 12 -14 12 -22 0 -20 43 -84 58 -85 17
0 15 49 -3 56 -8 4 -15 15 -15 25 0 11 -7 22 -15 25 -21 8 -19 26 6 48 18 15
20 25 15 58 -8 47 -34 87 -58 88 -22 0 -26 18 -15 62 5 21 7 44 4 52 -13 34
-144 34 -225 0 -18 -8 -42 -14 -53 -14 -19 0 -92 -48 -131 -86 -27 -26 -38 -8
-39 64 0 37 -4 90 -9 117 l-7 50 -2 -65z m416 -106 c5 -15 -91 -26 -123 -14
-14 6 -22 15 -19 20 9 14 137 8 142 -6z m79 -179 c-3 -8 -12 -15 -21 -15 -17
0 -20 16 -5 25 6 3 10 18 11 33 l1 27 10 -28 c5 -15 7 -34 4 -42z"/>
<path d="M1931 7118 c0 -13 -3 -40 -7 -60 -5 -31 -3 -38 10 -38 9 0 16 6 16
13 0 6 7 25 15 41 9 16 14 29 13 30 -2 1 -13 9 -24 19 -21 18 -22 18 -23 -5z"/>
<path d="M2008 7128 c8 -8 12 -61 12 -173 0 -173 1 -170 -61 -237 -16 -18 -29
-38 -29 -44 0 -6 -7 -17 -15 -24 -34 -28 -56 -102 -35 -115 6 -3 10 0 10 8 0
8 9 26 20 40 11 14 20 32 20 40 0 8 7 17 15 21 8 3 15 12 15 20 0 8 6 19 13
23 7 4 23 25 36 46 12 20 26 37 31 37 4 0 11 12 15 27 3 15 12 31 18 35 8 5 6
11 -7 21 -16 12 -19 29 -20 141 -1 101 -4 129 -16 136 -21 14 -36 12 -22 -2z"/>
<path d="M1837 7117 c-3 -8 -1 -20 4 -28 6 -10 9 -7 9 14 0 29 -5 35 -13 14z"/>
<path d="M1466 6805 c-3 -8 -14 -15 -25 -15 -10 0 -21 -7 -25 -15 -3 -8 -12
-15 -21 -15 -8 0 -15 -4 -15 -9 0 -4 -19 -21 -41 -37 -49 -34 -91 -75 -144
-140 -21 -27 -46 -56 -54 -65 -9 -9 -23 -26 -31 -39 -8 -12 -23 -33 -32 -45
-10 -13 -18 -28 -18 -34 0 -6 -4 -11 -10 -11 -5 0 -13 -12 -16 -27 -4 -16 -13
-35 -21 -44 -9 -11 -13 -40 -11 -102 2 -59 -1 -90 -10 -99 -14 -14 -16 -84 -2
-93 6 -3 10 -25 10 -49 0 -23 7 -51 15 -62 8 -10 15 -27 15 -36 0 -29 79 -169
141 -251 63 -84 70 -105 39 -125 -11 -7 -20 -17 -20 -23 0 -28 135 -169 161
-169 14 0 19 7 19 30 0 22 -4 28 -15 24 -9 -4 -35 15 -70 51 -60 62 -71 91
-31 81 28 -7 50 15 42 41 -3 10 -19 33 -36 51 -16 18 -30 37 -30 42 0 4 -7 10
-15 14 -8 3 -15 12 -15 21 0 8 -4 15 -9 15 -10 0 -27 26 -55 87 -9 17 -20 34
-26 38 -5 3 -10 13 -10 21 0 9 -7 22 -15 30 -8 9 -15 26 -15 39 0 12 -7 25
-15 29 -11 4 -15 20 -15 57 0 36 -6 58 -20 76 -27 35 -26 40 15 57 29 12 35
20 35 44 0 16 -7 35 -15 42 -9 8 -15 30 -15 57 0 30 5 45 15 49 8 4 15 17 15
30 0 14 7 27 15 30 8 4 15 14 15 25 0 10 6 22 13 26 15 10 57 69 57 82 0 5 7
11 15 15 8 3 15 12 15 21 0 8 4 15 9 15 4 0 21 18 36 40 15 22 60 66 99 97 39
31 75 63 79 70 4 7 15 13 23 13 8 0 17 7 20 15 7 18 54 20 54 3 0 -6 3 -9 6
-6 9 10 -20 48 -37 48 -9 0 -19 -7 -23 -15z"/>
<path d="M2435 6683 c-31 -5 -105 -67 -105 -89 0 -7 -7 -14 -14 -17 -8 -3 -18
-22 -21 -41 -4 -19 -13 -40 -20 -46 -15 -13 -19 -164 -5 -191 20 -36 30 -9 30
80 0 67 4 92 15 101 8 7 15 18 15 26 0 22 60 84 103 106 33 16 44 18 65 9 20
-10 27 -9 38 6 20 27 17 42 -12 53 -26 10 -35 10 -89 3z"/>
<path d="M2537 6604 c-4 -4 -7 -20 -7 -36 0 -15 -4 -28 -10 -28 -11 0 -40 -64
-40 -88 0 -8 11 -30 25 -48 32 -42 31 -54 -5 -89 -18 -17 -30 -39 -30 -54 0
-26 42 -81 61 -81 29 0 49 153 40 309 -5 105 -14 134 -34 115z"/>
<path d="M2660 6576 c0 -19 5 -38 10 -41 6 -4 10 8 10 29 0 19 -4 38 -10 41
-6 4 -10 -8 -10 -29z"/>
<path d="M2690 6411 c0 -61 4 -101 10 -101 6 0 10 38 10 94 0 53 -4 98 -10
101 -6 4 -10 -30 -10 -94z"/>
<path d="M1705 6439 c-9 -14 -7 -15 36 -22 39 -6 65 5 55 22 -9 14 -83 14 -91
0z"/>
<path d="M1620 6372 c-31 -36 -32 -39 -27 -112 6 -86 2 -100 -23 -100 -10 0
-21 -4 -24 -9 -3 -4 -19 -11 -36 -14 -20 -4 -34 -15 -40 -31 -5 -13 -14 -27
-19 -31 -6 -3 -11 -21 -11 -39 0 -17 -5 -37 -11 -43 -8 -8 -4 -16 15 -28 18
-12 26 -26 26 -46 0 -15 4 -30 9 -34 6 -3 19 -24 31 -48 12 -23 43 -66 70 -96
50 -55 54 -78 17 -83 -29 -4 -51 -51 -43 -93 7 -36 56 -85 84 -85 21 0 46 -36
32 -45 -13 -8 -13 -115 0 -115 6 0 16 -12 22 -27 7 -16 33 -48 58 -72 l45 -44
-39 7 c-21 4 -46 11 -55 16 -9 5 -35 14 -58 20 -24 6 -43 15 -43 20 0 6 -18
10 -40 10 -23 0 -51 6 -63 14 -12 8 -44 16 -70 19 -47 5 -48 4 -45 -22 2 -19
9 -27 28 -29 14 -2 34 -7 45 -12 93 -42 275 -102 395 -130 52 -12 106 -26 120
-31 14 -4 68 -18 120 -29 52 -12 122 -28 156 -36 33 -8 73 -14 89 -14 16 0 47
-6 70 -14 22 -8 52 -17 68 -20 21 -5 27 -12 27 -32 0 -28 -8 -29 -75 -6 -16 6
-68 18 -115 27 -105 20 -201 41 -260 56 -25 6 -72 18 -105 26 -33 8 -85 21
-115 28 -90 22 -233 66 -275 84 -11 5 -47 20 -80 32 -33 13 -67 29 -76 36 -33
28 -42 16 -52 -67 -3 -19 -10 -51 -17 -70 -6 -19 -16 -48 -22 -65 -5 -16 -16
-81 -23 -144 -11 -96 -11 -138 1 -260 7 -80 18 -164 24 -186 5 -22 10 -61 10
-86 0 -26 7 -66 15 -89 8 -23 15 -58 15 -78 0 -19 6 -58 14 -86 8 -28 19 -76
26 -106 17 -88 38 -180 56 -250 8 -36 22 -90 29 -120 7 -30 18 -75 24 -100 38
-141 61 -261 61 -318 0 -21 7 -35 21 -42 15 -9 19 -19 17 -42 -3 -32 -29 -54
-90 -79 -16 -6 -28 -15 -28 -20 0 -5 -5 -9 -10 -9 -10 0 -70 -38 -80 -51 -3
-4 -28 -24 -56 -45 -67 -50 -137 -116 -197 -184 -59 -69 -56 -65 -102 -130
-21 -30 -53 -74 -71 -98 -18 -24 -42 -62 -54 -85 -12 -23 -32 -62 -46 -86 -13
-24 -24 -52 -24 -61 0 -10 -7 -23 -15 -30 -8 -7 -15 -29 -15 -49 -1 -20 -7
-47 -15 -61 -8 -14 -14 -40 -15 -58 0 -18 -7 -49 -15 -69 -21 -50 -22 -331 0
-359 8 -10 15 -27 15 -38 0 -29 43 -116 57 -116 7 0 13 -9 13 -20 0 -25 88
-120 111 -120 16 0 69 40 69 53 0 4 -7 7 -15 7 -8 0 -15 -7 -15 -15 0 -10 -10
-15 -29 -15 -33 0 -66 40 -58 70 3 12 0 17 -8 13 -21 -7 -55 34 -55 66 0 16
-7 34 -15 41 -8 7 -15 27 -15 44 -1 17 -7 42 -15 56 -16 29 -22 295 -6 304 5
4 12 29 16 57 4 28 13 63 21 77 8 15 14 38 14 52 0 14 6 34 14 45 7 11 17 35
21 53 3 17 11 32 16 32 5 0 9 7 9 15 0 20 41 98 57 108 7 4 13 17 13 27 0 11
5 20 10 20 6 0 15 10 20 23 13 29 32 59 47 72 14 12 83 103 83 110 0 11 205
205 216 205 5 0 27 16 49 35 22 19 45 39 52 45 7 5 19 10 27 10 9 0 20 9 26
20 6 11 19 20 29 20 15 0 19 -11 24 -52 6 -48 3 -60 -38 -145 -25 -51 -45 -97
-45 -103 0 -5 -9 -27 -20 -47 -11 -21 -20 -45 -20 -53 0 -8 -7 -24 -15 -34 -8
-11 -15 -32 -15 -47 0 -14 -7 -32 -15 -39 -8 -7 -15 -28 -15 -47 0 -19 -7 -41
-15 -49 -9 -9 -15 -34 -15 -59 0 -29 -5 -45 -15 -49 -11 -4 -15 -20 -15 -54 0
-30 -6 -54 -14 -61 -7 -6 -16 -37 -20 -68 -4 -31 -11 -62 -17 -69 -14 -17 -17
-137 -4 -144 6 -3 14 26 19 70 5 41 14 78 19 82 6 3 12 32 15 64 3 32 11 64
18 72 8 7 14 34 14 58 0 27 6 52 15 60 8 9 15 33 15 53 0 22 6 44 15 51 8 7
15 23 15 36 0 13 9 41 20 61 11 21 20 47 20 58 0 11 7 29 15 39 8 11 15 30 15
43 0 27 16 31 24 5 3 -9 7 -65 8 -124 2 -87 0 -109 -14 -125 -9 -10 -20 -30
-23 -45 -4 -16 -10 -28 -14 -28 -4 0 -15 -26 -25 -58 -17 -58 -17 -59 4 -94
15 -26 33 -40 68 -52 71 -26 77 -31 76 -62 -3 -82 -25 -325 -33 -369 -5 -27
-10 -80 -10 -116 -1 -37 -8 -83 -16 -102 -16 -38 -20 -167 -6 -202 8 -19 8
-19 15 3 4 12 11 57 16 100 5 42 14 97 19 122 6 25 10 67 11 93 0 27 5 57 10
67 6 11 15 90 20 177 14 213 26 323 38 335 16 16 33 -1 30 -30 -3 -42 22 -145
42 -169 24 -31 117 -66 153 -59 16 3 42 15 58 27 l29 20 -1 146 c-1 93 3 149
10 156 8 8 11 -4 11 -45 0 -72 39 -192 74 -226 24 -24 33 -27 91 -25 83 2 120
27 130 91 8 51 -4 98 -74 292 -7 19 -15 46 -18 60 -3 14 -12 34 -19 45 -17 24
-18 57 -2 73 10 10 10 15 -2 22 -28 18 -47 11 -53 -20 -7 -32 1 -88 14 -105 4
-6 11 -31 15 -55 4 -25 13 -54 20 -65 8 -11 14 -29 14 -41 0 -12 7 -35 15 -50
8 -16 15 -41 15 -55 0 -15 7 -32 15 -39 20 -17 18 -50 -4 -78 -15 -17 -30 -22
-70 -22 -37 0 -51 4 -51 14 0 7 -7 19 -15 26 -8 7 -15 22 -15 34 0 12 -7 31
-15 42 -8 10 -15 38 -15 61 0 23 -9 66 -21 95 -13 35 -18 63 -14 85 8 42 -27
113 -55 113 -11 0 -20 -1 -21 -2 0 -2 -3 -113 -5 -247 -3 -135 -7 -247 -10
-250 -3 -3 -30 -5 -60 -5 -49 0 -58 3 -79 29 -24 30 -24 33 -25 246 0 167 -3
219 -13 228 -15 12 -37 -3 -37 -25 0 -6 -6 -17 -14 -23 -8 -6 -17 -32 -20 -56
-4 -25 -11 -47 -17 -50 -5 -4 -9 -23 -9 -43 -1 -46 -40 -116 -66 -120 -11 -2
-32 2 -47 7 -25 10 -27 15 -27 65 0 35 5 58 15 66 8 7 15 20 15 30 0 10 7 23
15 30 8 7 15 23 15 37 0 13 7 35 16 48 10 15 14 36 11 52 -27 146 -28 152 -12
189 8 20 15 46 15 59 0 12 11 42 25 66 14 24 30 55 37 69 7 14 26 38 42 54
l29 28 -16 72 c-9 39 -21 123 -26 186 -20 214 -31 305 -41 328 -6 13 -12 73
-15 133 -3 60 -10 122 -16 137 -6 15 -14 89 -19 164 -5 75 -14 146 -19 157
-25 45 -12 48 139 25 19 -3 51 -6 70 -6 115 -3 263 -18 275 -28 8 -6 23 -9 35
-5 22 7 27 -12 10 -43 -12 -20 -38 -94 -49 -137 -4 -17 -13 -40 -19 -52 -7
-12 -12 -31 -12 -42 0 -11 -8 -27 -17 -37 -23 -23 -25 -130 -3 -144 21 -13 28
-356 9 -402 -13 -32 -17 -62 -19 -168 0 -38 -8 -78 -17 -97 -16 -31 -16 -31
14 -62 18 -17 37 -31 44 -31 6 0 42 -31 78 -69 37 -37 80 -75 96 -84 17 -8 43
-27 58 -41 15 -14 33 -26 38 -26 6 0 23 -6 37 -13 15 -8 44 -22 66 -33 43 -21
65 -56 49 -76 -6 -7 -14 -27 -17 -44 -7 -30 -11 -32 -60 -38 -41 -6 -64 -2
-105 13 -65 26 -94 27 -89 4 2 -10 13 -22 25 -28 11 -6 27 -16 34 -22 8 -5 27
-13 44 -17 16 -4 36 -12 42 -18 16 -13 18 -141 3 -168 -5 -10 -14 -82 -19
-161 -6 -79 -15 -160 -21 -179 -5 -19 -10 -56 -10 -82 0 -26 -6 -75 -14 -110
-8 -35 -17 -91 -21 -126 -4 -34 -11 -64 -15 -67 -5 -3 -12 -36 -15 -73 -4 -37
-11 -75 -16 -84 -5 -9 -11 -51 -14 -93 -5 -68 -3 -76 12 -73 18 3 36 69 52
201 6 43 13 82 16 87 8 13 31 146 50 285 9 61 19 137 24 170 5 33 10 89 10
125 1 36 8 100 16 143 8 43 15 105 15 137 0 56 1 59 36 80 51 32 86 92 88 152
1 47 -1 50 -54 98 -44 39 -62 49 -91 50 -20 0 -42 7 -49 15 -7 8 -18 15 -25
15 -7 0 -30 19 -51 41 -78 84 -105 108 -155 140 l-50 33 6 51 c6 48 20 135 31
183 13 61 54 -7 54 -90 0 -59 33 -71 196 -70 105 0 137 3 156 16 12 9 30 16
40 16 11 0 20 10 24 28 3 15 12 41 20 59 8 17 14 42 14 55 0 12 7 32 15 42 8
11 15 35 15 53 0 19 6 44 14 56 7 12 17 42 20 66 4 24 10 49 14 55 7 11 23 72
42 166 7 30 18 77 26 104 8 26 14 65 14 85 0 20 7 61 15 91 8 30 15 77 15 103
0 26 6 76 14 110 17 74 33 178 46 302 5 50 14 109 20 132 13 54 13 170 0 178
-5 3 -10 15 -10 25 0 11 -24 43 -52 73 -29 29 -87 90 -129 135 -69 75 -81 84
-134 98 -33 8 -129 19 -215 24 -85 5 -171 13 -190 18 -19 6 -64 13 -99 17 -60
6 -161 45 -161 63 0 4 -25 34 -55 67 -30 33 -55 65 -55 71 0 6 -7 17 -15 24
-8 7 -15 29 -15 49 0 29 6 40 30 56 31 21 40 45 16 45 -17 0 -109 42 -131 60
-38 31 -6 95 52 102 49 5 42 40 -22 106 -61 64 -135 165 -135 185 0 7 -7 22
-15 33 -22 29 -18 52 15 84 30 30 60 37 133 31 37 -3 44 21 20 72 -14 29 -19
56 -16 87 8 90 8 90 62 90 27 0 62 -7 77 -15 16 -8 37 -15 48 -15 13 0 17 -5
13 -19 -4 -17 -1 -17 34 -8 22 5 39 12 39 16 -1 18 -52 61 -73 61 -14 0 -27 7
-31 15 -4 11 -21 15 -60 15 -30 0 -66 4 -79 9 -21 8 -29 4 -57 -27z m818
-1691 c9 -5 25 -12 34 -15 34 -10 55 -89 78 -286 12 -106 14 -110 43 -110 25
0 55 -25 44 -36 -3 -4 -21 -9 -39 -13 -45 -9 -45 -41 0 -60 38 -17 40 -28 7
-41 -14 -5 -25 -17 -25 -28 0 -10 11 -24 25 -30 30 -14 32 -28 5 -37 -23 -7
-25 -35 -14 -168 7 -74 8 -76 38 -87 l30 -10 -28 -27 -29 -26 23 -19 c26 -21
20 -48 -10 -48 -26 0 -26 -22 0 -45 22 -20 18 -32 -15 -45 -22 -8 -29 -26 -41
-111 -4 -25 -1 -39 10 -48 15 -13 15 -15 0 -32 -9 -10 -18 -40 -20 -70 -2 -28
-8 -56 -13 -63 -5 -6 -12 -31 -16 -56 -15 -90 -65 -125 -65 -45 0 25 -4 46
-10 46 -5 1 -14 3 -20 4 -5 1 -14 3 -20 4 -5 0 -10 9 -10 20 0 13 10 20 31 25
36 7 38 39 2 44 -22 3 -37 27 -27 43 3 5 16 9 30 9 34 0 33 36 -1 44 -34 9
-31 20 8 43 27 16 34 29 44 74 13 66 4 86 -42 95 -50 9 -45 32 7 36 31 2 44 8
46 20 2 12 -5 17 -25 20 -35 4 -48 48 -15 48 56 0 71 34 21 44 -27 5 -30 8
-19 21 7 8 18 15 25 15 7 0 18 7 25 15 11 13 11 35 1 118 -13 106 -22 127 -51
127 -10 0 -20 6 -23 14 -7 17 11 36 35 36 10 0 18 7 18 15 0 8 -8 15 -17 15
-10 0 -25 5 -33 10 -12 8 -10 14 15 40 25 26 27 32 15 40 -8 5 -18 10 -22 10
-14 0 -8 27 8 41 14 11 16 27 10 99 -6 88 -26 192 -52 270 -8 25 -14 48 -14
53 0 10 17 9 38 -2z m-408 -393 l135 -13 3 -27 c4 -30 -28 -54 -56 -43 -22 8
-244 26 -422 34 l-145 6 -3 34 -3 33 178 -6 c98 -3 239 -11 313 -18z"/>
<path d="M2300 6225 c0 -16 6 -25 15 -25 16 0 19 9 9 34 -9 25 -24 19 -24 -9z"/>
<path d="M2667 6243 c-11 -10 -8 -73 3 -73 6 0 10 18 10 40 0 41 -2 45 -13 33z"/>
<path d="M3285 6219 c-22 -4 -67 -13 -100 -19 -33 -7 -70 -14 -82 -16 -13 -2
-23 -9 -23 -14 0 -6 10 -10 23 -10 22 0 57 -52 57 -85 0 -42 103 -175 135
-175 7 0 18 -7 25 -15 7 -8 22 -15 34 -15 11 0 30 -7 40 -15 11 -8 28 -15 38
-15 10 0 18 -5 18 -11 0 -16 -61 -70 -92 -81 -16 -5 -28 -14 -28 -18 0 -5 -18
-11 -40 -15 -22 -4 -42 -10 -45 -15 -3 -4 -35 -11 -72 -14 -129 -12 -163 -18
-163 -27 0 -5 49 -9 109 -9 84 0 111 3 121 15 7 8 23 15 36 15 20 0 90 30 119
52 48 36 85 73 85 84 0 8 8 27 18 41 13 21 17 49 17 128 0 113 -23 194 -64
226 -26 20 -91 24 -166 8z"/>
<path d="M2500 6145 c0 -8 5 -15 10 -15 6 0 10 7 10 15 0 8 -4 15 -10 15 -5 0
-10 -7 -10 -15z"/>
<path d="M2943 6153 c-28 -11 -11 -23 31 -23 49 0 76 7 76 21 0 9 -86 11 -107
2z"/>
<path d="M2465 6120 c-7 -12 2 -30 16 -30 5 0 9 9 9 20 0 21 -15 27 -25 10z"/>
<path d="M2752 6123 c-56 -7 -24 -23 46 -23 73 0 110 13 70 23 -24 7 -59 7
-116 0z"/>
<path d="M2275 5990 c-3 -5 1 -25 11 -42 9 -18 20 -39 24 -47 3 -8 15 -19 25
-25 11 -6 40 -32 65 -57 25 -25 64 -54 88 -64 23 -10 42 -22 42 -27 0 -4 18
-11 40 -14 22 -4 43 -11 46 -15 7 -12 64 -11 64 1 0 6 -13 10 -28 10 -16 0
-37 9 -47 20 -10 11 -25 20 -32 20 -48 0 -273 199 -273 242 0 11 -18 10 -25
-2z"/>
<path d="M2340 5765 c0 -8 5 -15 10 -15 6 0 10 7 10 15 0 8 -4 15 -10 15 -5 0
-10 -7 -10 -15z"/>
<path d="M2385 5729 c-11 -17 0 -20 21 -4 17 13 17 14 2 15 -9 0 -20 -5 -23
-11z"/>
<path d="M2755 5670 c-14 -6 2 -9 50 -8 50 0 63 2 45 8 -33 11 -70 11 -95 0z"/>
<path d="M2412 5650 c0 -14 2 -19 5 -12 2 6 2 18 0 25 -3 6 -5 1 -5 -13z"/>
<path d="M2435 5610 c-3 -5 2 -15 10 -23 8 -9 15 -20 15 -25 0 -19 120 -128
166 -151 27 -13 58 -29 69 -35 11 -5 66 -12 123 -14 86 -4 102 -2 102 11 0 20
-30 27 -117 27 -41 0 -83 6 -100 14 -15 8 -46 23 -68 33 -21 10 -74 52 -117
95 -43 42 -80 73 -83 68z"/>
<path d="M2853 5317 c-4 -8 -16 -16 -25 -20 -19 -7 -25 -37 -8 -37 5 0 15 9
22 20 7 11 18 20 24 20 6 0 17 7 24 15 10 13 9 15 -8 15 -12 0 -25 -6 -29 -13z"/>
<path d="M2784 5216 c-7 -30 -2 -56 11 -59 6 -1 11 17 13 41 3 45 -13 58 -24
18z"/>
<path d="M2754 5116 c-8 -34 -1 -79 14 -84 8 -3 12 12 12 52 0 57 -15 75 -26
32z"/>
<path d="M2800 5000 c0 -5 4 -10 10 -10 16 0 91 -84 106 -119 17 -40 11 -48
-36 -53 -19 -2 -35 -7 -35 -13 0 -16 61 -18 76 -2 8 7 22 16 32 20 9 3 17 11
17 16 0 16 -41 81 -51 81 -5 0 -9 6 -9 13 0 6 -16 23 -35 36 -19 13 -35 27
-35 32 0 5 -9 9 -20 9 -11 0 -20 -4 -20 -10z"/>
<path d="M1740 3050 c0 -5 5 -10 10 -10 6 0 10 5 10 10 0 6 -4 10 -10 10 -5 0
-10 -4 -10 -10z"/>
<path d="M2407 2876 c-10 -26 -9 -144 2 -150 18 -11 28 108 12 148 -7 18 -8
18 -14 2z"/>
<path d="M2090 2070 c0 -5 5 -10 10 -10 6 0 10 5 10 10 0 6 -4 10 -10 10 -5 0
-10 -4 -10 -10z"/>
<path d="M1237 1822 c-5 -7 -11 -38 -14 -70 -3 -31 -12 -66 -19 -77 -19 -27
-18 -75 1 -75 11 0 15 11 15 42 0 23 7 49 16 59 11 12 14 33 12 75 -2 36 -6
54 -11 46z"/>
<path d="M1167 1573 c-4 -3 -7 -17 -7 -30 0 -33 24 -24 28 10 3 26 -7 35 -21
20z"/>
<path d="M1130 1485 c0 -14 5 -25 10 -25 6 0 10 4 10 9 0 5 3 16 6 25 4 11 1
16 -10 16 -10 0 -16 -9 -16 -25z"/>
<path d="M1086 1435 c-3 -8 -12 -12 -21 -9 -10 4 -15 0 -15 -10 0 -26 29 -31
51 -8 10 12 19 26 19 32 0 16 -27 12 -34 -5z"/>
<path d="M1540 1180 c0 -5 9 -10 21 -10 11 0 17 5 14 10 -3 6 -13 10 -21 10
-8 0 -14 -4 -14 -10z"/>
<path d="M1610 1162 c-16 -6 -12 -29 6 -36 9 -3 28 -6 43 -6 15 0 32 -5 39
-12 7 -7 58 -12 139 -14 71 -2 131 -3 136 -3 13 -2 7 -112 -8 -141 -20 -39
-30 -215 -15 -269 18 -67 30 -71 240 -71 126 -1 204 -5 245 -15 33 -8 95 -15
137 -15 42 0 79 -4 82 -9 3 -5 28 -14 54 -21 74 -17 124 -68 162 -165 17 -44
34 -100 37 -125 l5 -46 -72 -17 c-39 -9 -76 -15 -81 -11 -5 3 -9 23 -9 44 0
48 -8 70 -26 70 -11 0 -12 -13 -8 -59 8 -70 18 -65 -151 -81 -115 -12 -519 -8
-797 6 -73 4 -108 2 -108 -5 0 -6 6 -11 13 -11 112 -5 198 -13 222 -22 19 -7
151 -13 362 -16 276 -3 344 -1 408 12 43 9 93 16 113 16 58 0 162 40 175 67
11 25 -3 111 -29 170 -8 17 -14 34 -14 39 0 4 -11 30 -24 58 -29 60 -76 106
-131 128 -102 41 -390 63 -643 50 -68 -4 -125 -5 -127 -2 -3 5 9 202 23 370 4
47 11 91 15 98 5 7 31 12 67 12 52 0 82 12 67 27 -6 5 -530 10 -547 5z"/>
<path d="M1617 1083 c-4 -3 -7 -36 -7 -72 0 -37 -6 -78 -14 -93 -8 -15 -18
-69 -21 -120 -4 -51 -12 -101 -17 -111 -5 -10 -13 -71 -18 -135 -4 -64 -14
-159 -20 -209 -12 -91 -9 -130 9 -119 4 3 11 26 14 51 2 25 12 51 20 58 12 9
16 41 19 147 3 89 9 144 18 160 8 16 14 61 15 125 0 55 6 109 12 120 15 28 26
137 18 174 -6 30 -15 38 -28 24z"/>
<path d="M2556 494 c-11 -28 -7 -33 43 -55 56 -24 88 -54 93 -87 4 -28 22 -30
26 -2 2 11 -10 37 -27 59 -17 21 -31 44 -31 50 0 6 -5 11 -12 11 -6 0 -19 6
-27 14 -27 23 -58 28 -65 10z"/>
</g>
</svg>
